<svg width="187" height="57" xmlns="http://www.w3.org/2000/svg">

 <g>
  <title>Layer 1</title>
  <path id="svg_1" fill="#4e6ef1" d="m9.79572,20.4633c0.34928,-0.6142 0.85508,-1.1248 1.46578,-1.4801s1.3047,-0.5424 2.0112,-0.5424c0.7066,0 1.4005,0.1871 2.0112,0.5424c0.6108,0.3553 1.1165,0.8659 1.4658,1.4801l9.273,16.309c0.3459,0.6083 0.5261,1.2966 0.5227,1.9963s-0.1902,1.3863 -0.5419,1.9912s-0.8559,1.107 -1.4623,1.4561s-1.2938,0.533 -1.9935,0.5334l-18.54898,0c-0.69979,-0.0002 -1.38728,-0.184 -1.99381,-0.5331c-0.60653,-0.349 -1.11088,-0.8511 -1.46269,-1.456s-0.53875,-1.2916 -0.54217,-1.9913c-0.00342,-0.6998 0.1768,-1.3883 0.52267,-1.9966l9.273,-16.309z"/>
  <path id="svg_2" fill="#e74c3c" d="m35.3172,10.7046c0.7008,0.0015 1.3889,0.187 1.9954,0.538s1.1102,0.8552 1.4605,1.462c0.3504,0.6069 0.5352,1.2952 0.5359,1.9959c0.0008,0.7008 -0.1826,1.3895 -0.5318,1.997l-7.1586,12.455c-0.3502,0.6094 -0.8547,1.1157 -1.4628,1.4681c-0.6082,0.3523 -1.2984,0.5382 -2.0012,0.5389c-0.7029,0.0007 -1.3935,-0.1838 -2.0023,-0.5349c-0.6089,-0.3511 -1.1145,-0.8564 -1.4659,-1.4651l-7.2065,-12.482c-0.3514,-0.6087 -0.5362,-1.2992 -0.5359,-2.002c0.0004,-0.7028 0.1859,-1.3932 0.538,-2.0015c0.352,-0.6083 0.8581,-1.1131 1.4673,-1.4636s1.3,-0.5343 2.0028,-0.5328l14.3651,0.027z"/>
  <text transform="matrix(1.17396 0 0 1.17396 -7.82833 -0.782833)" stroke="null" font-style="normal" font-weight="normal" xml:space="preserve" text-anchor="start" font-family="'Open Sans ExtraBold'" font-size="24" stroke-width="0" id="svg_4" y="31.35182" x="44.14818" fill="#4f80ff">DiLo App</text>
 </g>
</svg>